<svg
            fill="#ffffff"
            version="1.0"
            xmlns="http://www.w3.org/2000/svg"
            viewBox="0 0 1024.000000 1024.000000"
            preserveAspectRatio="xMidYMid meet"
            
          >
            <g
              transform="translate(0.000000,1024.000000) scale(0.100000,-0.100000)"
              fill="#ffffff"
              stroke="none"
            >
              <path
                d="M4880 9349 c-152 -41 -301 -148 -392 -281 -34 -51 -43 -58 -72 -58
-98 0 -235 -69 -333 -167 -163 -164 -233 -428 -165 -625 17 -50 17 -56 1 -113
-11 -38 -18 -98 -18 -161 -2 -187 70 -357 198 -475 81 -75 152 -110 235 -116
l64 -6 -2 41 c-2 35 -8 45 -51 80 -155 122 -237 257 -266 431 -11 64 -10 80
11 165 22 91 22 96 5 143 -26 74 -31 216 -10 289 40 140 134 257 251 315 56
28 80 34 155 37 l89 4 30 62 c37 79 94 144 171 195 86 58 169 81 288 81 138 0
210 -22 316 -96 70 -49 111 -97 153 -180 l31 -61 80 -6 c64 -4 91 -11 141 -38
76 -41 154 -124 194 -209 29 -61 31 -72 31 -180 0 -99 -4 -130 -32 -225 -17
-60 -35 -125 -38 -143 -6 -31 -5 -33 12 -24 35 19 148 141 181 195 67 111 77
264 26 417 -32 96 -69 152 -148 229 -74 70 -158 114 -260 136 -38 7 -69 15
-70 17 -1 2 -17 26 -35 55 -76 122 -235 234 -387 273 -106 27 -280 27 -384 -1z"
              />
              <path
                d="M5000 8971 c-34 -6 -36 -9 -54 -77 l-20 -72 -51 -16 c-28 -9 -73 -27
-100 -41 l-49 -24 -64 35 -64 36 -79 -78 c-44 -43 -79 -82 -79 -86 0 -3 16
-34 36 -67 l36 -61 -30 -72 -30 -73 -79 -21 -78 -21 0 -114 0 -114 77 -19 76
-18 30 -82 c29 -80 29 -81 12 -116 -10 -19 -25 -52 -33 -73 l-16 -37 70 -80
c39 -44 74 -80 78 -80 4 0 34 16 66 36 l59 35 66 -30 c36 -17 83 -37 105 -44
38 -13 41 -17 63 -90 l23 -77 104 0 104 0 15 53 c8 28 18 63 21 77 5 21 19 30
76 50 38 13 84 33 101 45 l32 22 64 -40 64 -40 80 80 80 80 -37 74 -38 74 29
81 28 81 78 18 79 18 -3 116 -3 116 -77 19 -76 18 -30 71 -30 72 25 50 c14 27
32 58 40 67 13 15 7 24 -62 97 -43 45 -83 81 -89 81 -6 0 -36 -16 -66 -36
l-54 -35 -45 24 c-25 14 -71 33 -102 42 l-56 18 -23 73 c-17 54 -28 74 -44 78
-26 7 -109 5 -156 -3z m172 -322 c133 -29 253 -126 316 -256 60 -127 54 -294
-15 -413 -104 -176 -288 -259 -494 -220 -77 15 -151 54 -217 115 -104 96 -148
209 -140 362 7 120 43 200 132 289 113 112 262 156 418 123z"
              />
              <path
                d="M4980 8475 c-57 -18 -122 -73 -158 -133 -24 -42 -27 -57 -27 -137 0
-80 3 -95 27 -137 82 -139 249 -187 389 -112 60 33 123 107 139 162 12 46 13
142 1 142 -5 0 -72 -65 -148 -145 l-140 -145 -106 109 c-59 60 -107 116 -107
123 0 8 18 31 40 53 l40 39 32 -30 c18 -16 35 -31 38 -34 3 -3 17 -15 31 -28
l25 -22 112 112 c125 125 124 121 38 165 -63 32 -160 40 -226 18z"
              />
              <path
                d="M3806 8914 c-23 -22 -20 -61 5 -74 52 -28 102 28 64 70 -22 24 -48
26 -69 4z"
              />
              <path
                d="M6365 8896 c-62 -27 -68 -50 -69 -252 -1 -100 2 -185 6 -189 12 -12
56 4 62 23 3 9 8 88 10 176 3 87 9 163 14 168 17 17 56 4 69 -22 9 -17 13 -83
13 -217 0 -107 4 -193 9 -193 5 0 23 16 40 35 l31 36 0 167 c0 144 -3 173 -20
210 -29 64 -97 88 -165 58z"
              />
              <path
                d="M3400 8725 c-19 -23 -8 -50 22 -53 19 -2 30 3 38 18 21 39 -31 70
-60 35z"
              />
              <path
                d="M3647 8722 c-33 -37 -11 -92 37 -92 51 0 74 66 34 94 -29 21 -51 20
-71 -2z"
              />
              <path
                d="M6700 8705 c-26 -32 13 -81 48 -59 34 22 22 74 -18 74 -10 0 -23 -7
-30 -15z"
              />
              <path
                d="M7080 8600 c-219 -28 -396 -154 -505 -361 -67 -128 -92 -308 -60
-440 10 -41 19 -75 20 -77 4 -5 139 30 148 38 4 4 3 47 -4 96 -10 76 -9 101 5
168 82 396 540 547 821 271 95 -94 155 -219 155 -327 0 -43 1 -44 84 -22 96
25 265 22 346 -5 77 -27 175 -94 224 -154 40 -49 86 -142 86 -175 0 -13 8 -25
18 -28 82 -25 183 -118 228 -209 26 -54 29 -70 29 -155 0 -84 -3 -102 -29
-157 -44 -95 -128 -166 -225 -190 -24 -6 -22 -2 17 41 24 26 56 73 70 104 23
49 27 70 27 152 0 84 -3 101 -27 146 -31 59 -93 118 -151 144 -35 16 -43 26
-63 79 -75 200 -235 301 -458 289 -179 -10 -286 -78 -411 -264 -9 -13 -16 -13
-56 5 -55 25 -181 45 -223 37 -17 -4 -121 -1 -231 5 -176 11 -209 10 -279 -4
-108 -22 -196 -66 -265 -132 -224 -213 -162 -569 123 -704 52 -25 89 -35 164
-42 57 -6 458 -9 977 -7 l880 3 66 31 c77 37 163 119 209 199 46 81 74 203 67
295 -14 179 -127 370 -262 441 -35 18 -47 34 -77 98 -43 92 -140 200 -222 250
-110 66 -175 83 -338 89 -101 3 -148 8 -148 16 0 23 -69 153 -112 212 -131
176 -379 274 -618 244z m677 -970 c36 -28 152 -28 197 -1 l32 20 83 -78 83
-78 -17 -32 c-22 -43 -6 -123 32 -163 l27 -28 -34 -47 c-101 -142 -92 -134
-128 -128 -40 7 -87 -22 -96 -60 -6 -24 -10 -25 -81 -25 l-75 0 -15 37 c-19
45 -30 53 -75 53 -37 1 -49 13 -131 136 l-31 45 25 20 c37 29 54 116 32 163
l-16 34 48 44 c26 23 61 57 78 74 16 17 32 32 33 33 2 0 15 -8 29 -19z m-787
-146 c6 -18 24 -47 40 -64 25 -27 34 -31 60 -25 24 5 34 2 50 -17 17 -19 19
-32 14 -76 -4 -41 -2 -59 11 -79 17 -25 16 -28 -10 -84 -26 -54 -30 -57 -56
-52 -40 8 -77 -19 -100 -73 l-20 -44 -74 0 -73 0 -12 35 c-16 49 -66 88 -104
82 -29 -4 -33 0 -58 50 -26 52 -27 56 -12 85 11 22 14 43 9 79 -9 61 15 100
56 92 20 -4 35 3 63 27 20 18 36 36 36 40 0 5 4 19 9 32 8 21 15 23 84 24 l76
2 11 -34z"
              />
              <path
                d="M7810 7437 c-34 -17 -63 -79 -55 -116 3 -16 18 -41 32 -55 47 -48
147 -28 173 33 38 94 -59 183 -150 138z"
              />
              <path
                d="M6825 7304 c-64 -69 7 -175 92 -139 87 37 62 165 -32 165 -26 0 -43
-7 -60 -26z"
              />
              <path
                d="M3035 8583 c-97 -35 -178 -108 -223 -200 -14 -29 -20 -33 -56 -33
-23 0 -58 -5 -79 -11 -36 -10 -40 -8 -77 25 -80 72 -187 104 -294 86 -110 -18
-186 -69 -260 -175 l-45 -65 92 0 c92 0 93 0 110 30 25 41 75 77 123 88 64 14
123 -8 177 -68 l45 -50 170 0 170 0 11 46 c45 178 241 269 387 178 61 -37 108
-99 130 -169 l18 -55 148 0 c81 0 148 4 148 9 0 14 -88 91 -116 101 -14 6 -40
10 -57 10 -30 0 -34 4 -51 52 -23 64 -114 159 -183 190 -68 30 -218 36 -288
11z"
              />
              <path
                d="M3640 8505 c-17 -21 -8 -50 17 -53 27 -4 50 31 30 45 -26 21 -35 22
-47 8z"
              />
              <path
                d="M6296 8352 c-6 -11 -6 -122 0 -122 3 0 19 10 37 22 18 13 33 23 34
24 1 0 -7 19 -18 42 -20 39 -41 53 -53 34z"
              />
              <path
                d="M7896 8347 c-28 -20 -18 -69 16 -81 51 -18 89 42 50 77 -22 20 -42
21 -66 4z"
              />
              <path
                d="M7105 8240 c-15 -17 -26 -19 -65 -14 -42 6 -48 4 -64 -21 -10 -15
-15 -33 -12 -40 2 -7 -4 -30 -15 -51 -10 -21 -19 -44 -19 -50 0 -7 -12 -14
-27 -16 -27 -3 -28 -6 -31 -65 -3 -61 -3 -61 27 -68 23 -5 33 -15 41 -41 6
-19 16 -34 22 -34 5 0 7 -12 3 -29 -5 -23 -1 -34 16 -50 30 -28 57 -35 75 -20
12 10 22 8 54 -10 42 -24 70 -22 102 7 15 12 22 13 48 2 28 -11 34 -11 58 7
20 15 27 29 26 54 0 19 5 37 12 42 7 4 15 20 19 36 5 22 14 31 35 36 24 5 31
13 36 42 9 48 -6 87 -34 91 -25 4 -68 83 -64 117 2 12 -8 31 -23 45 -23 21
-29 23 -56 13 -27 -11 -32 -9 -51 13 -28 31 -87 33 -113 4z m130 -160 c73 -68
46 -185 -47 -210 -98 -27 -189 81 -144 169 37 71 137 92 191 41z"
              />
              <path
                d="M6258 8029 l-97 -84 -1 -60 c-1 -124 -45 -247 -130 -358 -23 -32 -41
-59 -39 -61 2 -2 31 -15 64 -30 l60 -28 53 58 c104 114 165 229 183 348 5 33
8 115 7 180 l-3 120 -97 -85z"
              />
              <path
                d="M2154 8090 c-179 -5 -181 -5 -217 -33 -21 -16 -47 -47 -60 -70 -22
-42 -22 -46 -25 -552 -2 -330 1 -527 8 -560 13 -60 59 -121 107 -141 27 -12
179 -14 857 -14 914 -1 867 -4 924 66 53 64 55 95 49 649 -5 539 -6 545 -60
603 -54 58 -25 56 -742 56 -363 1 -741 -1 -841 -4z m1442 -162 c12 -5 27 -21
33 -35 12 -26 16 -918 5 -961 -15 -53 -3 -52 -816 -52 -576 1 -757 3 -769 13
-38 29 -39 44 -39 525 0 459 0 470 21 496 l20 26 362 2 c597 5 1160 -2 1183
-14z"
              />
              <path
                d="M2719 7821 c-67 -22 -130 -63 -186 -124 -86 -93 -121 -210 -104 -342
26 -188 147 -319 324 -349 227 -40 419 78 479 292 23 85 23 150 -1 235 -62
225 -297 357 -512 288z m1 -139 c-10 -27 -25 -86 -32 -130 l-12 -82 -73 0
c-84 0 -87 4 -53 79 30 66 77 119 134 151 28 17 52 30 53 30 0 0 -7 -22 -17
-48z m287 6 c59 -40 113 -117 137 -195 7 -23 6 -23 -72 -23 l-79 0 -7 66 c-4
36 -17 94 -31 129 -27 73 -23 74 52 23z m-133 -95 c9 -40 16 -83 16 -97 0 -25
-3 -26 -56 -26 l-56 0 7 57 c4 32 16 87 27 122 19 63 21 64 33 41 7 -14 20
-57 29 -97z m-190 -278 c3 -30 17 -88 30 -130 13 -41 21 -75 17 -75 -4 0 -31
15 -61 34 -73 45 -115 103 -138 189 l-10 37 77 0 78 0 7 -55z m202 -2 c-8 -71
-38 -183 -48 -183 -11 0 -44 116 -52 183 l-7 57 57 0 57 0 -7 -57z m260 34
c-21 -87 -79 -167 -148 -207 -29 -16 -56 -30 -59 -30 -3 0 5 33 19 73 13 39
27 98 30 130 l5 57 79 0 c79 0 80 0 74 -23z"
              />
              <path
                d="M1592 7878 c-28 -28 -7 -78 33 -78 45 0 67 58 31 82 -17 12 -51 9
-64 -4z"
              />
              <path
                d="M1550 7627 c0 -22 -6 -28 -39 -37 -39 -10 -102 -71 -81 -78 6 -2 10
-9 10 -16 0 -16 125 -8 162 10 15 8 34 14 43 14 12 0 15 12 15 60 0 56 -1 60
-24 60 -13 0 -38 3 -55 6 -28 6 -31 4 -31 -19z"
              />
              <path
                d="M1590 7398 c-25 -27 -26 -50 -2 -71 24 -22 55 -21 75 1 22 25 21 48
-3 72 -26 26 -44 25 -70 -2z"
              />
              <path
                d="M5951 7286 c-13 -28 -33 -54 -55 -68 -45 -29 -45 -47 -1 -76 20 -12
43 -38 52 -57 21 -43 46 -45 63 -5 7 17 33 45 57 62 l45 30 -45 47 c-24 25
-51 59 -58 75 -21 45 -37 43 -58 -8z"
              />
              <path
                d="M1445 7233 c9 -48 20 -61 66 -80 20 -8 39 -23 42 -34 4 -14 14 -19
40 -19 20 0 42 -3 51 -6 13 -5 16 3 16 49 0 54 -1 55 -40 76 -22 12 -55 21
-73 21 -18 0 -45 7 -61 15 -43 23 -49 19 -41 -22z"
              />
              <path
                d="M5155 7129 c-216 -24 -422 -117 -555 -250 -27 -27 -50 -44 -50 -36 0
8 18 51 40 95 29 58 57 95 97 132 l57 53 -34 -8 c-250 -54 -418 -214 -461
-437 -7 -38 -18 -68 -24 -68 -7 0 -38 -13 -71 -30 -83 -41 -157 -118 -202
-209 -36 -73 -37 -78 -37 -185 0 -99 3 -117 27 -168 35 -76 107 -151 177 -185
49 -25 67 -28 151 -28 88 0 101 3 162 33 74 36 126 89 161 164 12 26 25 47 28
48 3 0 14 -19 24 -42 10 -24 46 -71 80 -105 52 -51 72 -64 129 -82 79 -24 131
-26 201 -7 66 17 108 39 155 82 l38 35 23 -45 c59 -119 199 -197 325 -182 159
19 272 112 325 270 l17 48 22 -58 c28 -76 24 -180 -12 -250 -116 -234 -483
-283 -689 -93 l-40 37 -49 -19 c-173 -66 -377 -35 -507 75 -22 20 -44 36 -48
36 -4 0 -21 -12 -38 -26 -47 -40 -137 -81 -205 -94 -54 -11 -83 -10 -197 5
-125 17 -135 17 -159 1 -85 -55 -83 -253 5 -427 55 -111 114 -159 192 -159
l44 0 7 -60 c4 -33 16 -95 27 -138 120 -463 435 -734 824 -709 221 15 409 118
548 302 111 148 183 314 216 503 l17 97 52 6 c110 14 185 115 232 313 25 101
25 150 1 201 -19 44 -73 95 -98 95 -11 0 -14 6 -9 23 4 12 10 53 13 91 5 63 9
72 45 108 124 124 200 356 174 531 l-7 46 -35 -67 c-104 -199 -238 -248 -622
-224 -238 14 -434 60 -324 75 22 2 99 33 170 67 156 73 196 81 424 78 157 -2
165 -1 218 24 111 52 160 129 160 249 0 38 -3 69 -7 69 -5 0 -15 -13 -24 -28
-24 -42 -133 -109 -198 -123 -44 -9 -81 -8 -186 5 -245 31 -280 26 -525 -74
-157 -64 -265 -66 -425 -7 l-60 22 96 7 c192 14 323 81 525 271 44 41 89 79
101 85 76 40 286 -25 402 -125 23 -19 41 -32 41 -28 0 19 -77 119 -133 172
-191 184 -432 256 -742 222z"
              />
              <path
                d="M1373 6958 c-67 -18 -123 -99 -123 -179 0 -14 12 -48 26 -76 36 -73
80 -93 203 -93 124 0 173 24 215 107 35 70 5 173 -65 220 -33 22 -51 26 -131
28 -51 1 -107 -2 -125 -7z m84 -120 l23 -21 23 21 c32 30 71 28 96 -4 29 -37
27 -78 -5 -103 -34 -27 -62 -27 -90 0 l-23 21 -27 -21 c-35 -27 -59 -27 -89 4
-68 67 22 169 92 103z"
              />
              <path
                d="M8842 6738 c-17 -17 -15 -36 6 -47 13 -7 23 -6 30 1 17 17 15 45 -4
52 -20 8 -18 8 -32 -6z"
              />
              <path
                d="M1715 6536 c-66 -63 -117 -117 -113 -121 20 -21 243 -25 1133 -23
l970 3 41 105 c23 58 45 115 48 128 l7 22 -983 0 -983 0 -120 -114z m1379 48
c9 -3 16 -14 16 -24 0 -10 -7 -21 -16 -24 -9 -3 -127 -6 -263 -6 -248 0 -271
3 -271 36 0 7 8 15 18 17 26 7 498 8 516 1z"
              />
              <path
                d="M6521 6565 c-34 -39 -33 -51 11 -92 l24 -23 37 38 37 38 -38 37 -39
38 -32 -36z"
              />
              <path
                d="M7887 6569 c-64 -15 -114 -46 -164 -104 -45 -53 -50 -56 -84 -50 -77
13 -101 9 -126 -19 -34 -40 -31 -94 6 -130 25 -24 37 -28 78 -26 64 3 73 2 73
-10 0 -6 9 -29 20 -52 l19 -41 -23 -18 c-13 -10 -29 -32 -36 -49 -11 -27 -11
-37 3 -66 10 -19 29 -39 43 -45 39 -14 91 6 110 43 15 28 17 29 57 21 164 -32
296 35 349 179 l21 58 43 0 44 0 0 -85 c0 -83 1 -86 34 -122 l34 -37 129 -6
129 -5 60 -52 c33 -29 65 -53 71 -53 5 0 22 22 37 50 15 27 32 52 38 56 5 4
37 8 69 9 35 2 70 10 85 20 48 31 55 68 48 253 -3 92 -10 177 -16 189 -23 48
-56 53 -336 53 -143 0 -274 -3 -291 -6 -52 -11 -87 -52 -96 -112 -7 -55 -10
-57 -63 -46 -24 5 -34 14 -42 39 -17 51 -83 120 -137 142 -58 24 -134 33 -186
22z m141 -108 c151 -78 149 -262 -3 -332 -94 -44 -201 -2 -246 96 -23 51 -23
89 0 140 46 99 158 142 249 96z m931 -35 c8 -9 11 -61 9 -162 -3 -147 -3 -149
-28 -161 -18 -9 -91 -13 -261 -13 -295 0 -273 -14 -273 178 -1 75 2 145 6 155
7 16 29 17 271 17 213 0 267 -3 276 -14z"
              />
              <path
                d="M7902 6373 c-16 -6 -42 -56 -42 -82 0 -11 12 -33 26 -50 35 -42 84
-43 125 -2 36 36 37 70 3 110 -20 25 -33 31 -62 30 -21 0 -43 -3 -50 -6z"
              />
              <path
                d="M8585 6328 c-27 -15 -35 -28 -35 -59 0 -34 29 -59 67 -59 58 0 85 69
41 110 -24 22 -44 25 -73 8z"
              />
              <path
                d="M8726 6316 c-32 -31 -33 -56 -3 -84 32 -30 71 -28 96 4 26 32 26 46
4 72 -30 35 -68 38 -97 8z"
              />
              <path
                d="M7310 6556 c-18 -22 -5 -48 22 -44 17 2 23 10 23 28 0 29 -26 38 -45
16z"
              />
              <path
                d="M1256 6504 c-36 -35 -6 -94 47 -94 44 0 64 62 29 93 -23 21 -56 22
-76 1z"
              />
              <path
                d="M6907 6400 c-190 -25 -347 -206 -347 -400 0 -81 44 -204 92 -256 19
-21 18 -22 -40 -120 -61 -102 -80 -135 -295 -504 -202 -349 -202 -349 -177
-442 15 -51 80 -113 134 -127 64 -16 138 2 185 44 42 39 251 398 251 431 0 5
-41 33 -90 62 -50 29 -90 57 -90 61 0 4 5 12 11 18 6 6 62 102 125 214 62 112
117 210 122 218 7 12 18 12 77 -1 119 -26 228 -6 331 60 329 213 214 712 -171
745 -33 3 -86 2 -118 -3z m127 -172 c8 -13 20 -43 27 -67 12 -41 17 -46 85
-77 40 -18 75 -38 79 -44 9 -15 -37 -55 -82 -72 -32 -12 -33 -14 -34 -73 -1
-33 -4 -70 -7 -82 -7 -23 -8 -22 -73 17 -65 39 -68 40 -106 26 -21 -7 -57 -17
-81 -21 -50 -8 -50 -8 -23 88 l20 67 -45 73 -45 72 86 3 85 3 40 54 c22 30 45
55 50 55 5 0 16 -10 24 -22z m-531 -1218 c50 -25 55 -35 34 -65 -13 -17 -16
-17 -65 11 -29 16 -52 36 -52 45 0 16 20 41 30 36 3 -1 26 -13 53 -27z m-49
-222 c-8 -16 -18 -28 -22 -26 -106 51 -113 59 -91 99 10 19 12 19 69 -12 l59
-31 -15 -30z"
              />
              <path
                d="M1357 6241 c-165 -8 -157 5 -157 -258 0 -228 5 -249 64 -277 30 -14
92 -16 540 -16 544 0 554 1 590 51 14 20 16 56 16 236 0 210 0 212 -24 240
l-24 28 -310 3 c-272 3 -310 1 -315 -12 -4 -9 -1 -16 6 -16 8 0 6 -4 -3 -10
-13 -8 -12 -10 3 -10 10 0 15 -4 12 -10 -3 -5 0 -7 8 -4 8 3 18 1 22 -5 4 -7
85 -11 240 -11 128 0 240 -3 249 -6 23 -9 20 -31 -6 -39 -33 -11 -940 -14
-960 -3 -10 5 -18 15 -18 22 0 23 30 27 190 26 216 -2 217 -2 224 16 5 13 3
14 -7 6 -10 -8 -23 -2 -56 24 -49 38 -34 37 -284 25z m926 -227 c2 -15 1 -38
-2 -53 l-7 -26 -487 -3 -487 -2 0 55 0 55 489 0 489 0 5 -26z m-698 -174 c14
-44 -8 -51 -148 -48 -113 3 -131 5 -141 21 -22 36 15 47 155 47 120 0 128 -1
134 -20z m356 -2 c19 -35 -11 -48 -110 -48 -90 0 -103 4 -113 31 -12 31 13 39
114 39 90 0 98 -2 109 -22z m339 -7 c0 -36 -13 -41 -103 -41 -76 0 -90 5 -99
31 -11 30 13 39 109 39 l93 0 0 -29z"
              />
              <path
                d="M2895 6222 c-73 -25 -133 -63 -188 -118 -59 -60 -92 -126 -112 -222
-63 -302 233 -586 532 -510 l46 11 99 -102 100 -101 50 42 51 42 96 -101 c53
-56 149 -158 214 -226 64 -69 117 -131 117 -140 0 -27 -34 -60 -56 -53 -10 4
-55 47 -99 96 -44 48 -85 89 -90 89 -6 1 -40 -28 -75 -64 l-64 -65 84 -86
c115 -116 137 -128 225 -128 108 -1 178 44 210 133 21 59 19 127 -5 175 -11
23 -115 142 -231 266 -116 124 -250 267 -296 317 l-85 93 26 66 c100 248 -35
522 -289 590 -71 19 -199 17 -260 -4z m256 -163 c122 -61 188 -209 145 -323
-22 -58 -106 -134 -106 -96 0 14 -47 56 -114 102 l-59 41 5 -75 c3 -54 11 -86
26 -110 35 -57 30 -68 -31 -68 -138 0 -267 134 -267 277 0 84 58 191 127 234
79 49 197 57 274 18z"
              />
              <path
                d="M3566 6118 c-34 -48 -8 -108 46 -108 60 0 92 67 53 110 -25 28 -79
27 -99 -2z"
              />
              <path
                d="M7995 5898 c-214 -21 -437 -125 -604 -283 -99 -94 -163 -180 -221
-300 -84 -170 -95 -227 -94 -460 0 -188 2 -205 27 -288 81 -264 260 -483 495
-606 114 -59 205 -88 336 -107 402 -59 783 105 1001 431 129 193 183 394 172
634 -12 268 -121 510 -312 696 -206 199 -520 311 -800 283z m270 -188 c111
-24 265 -98 352 -170 172 -140 287 -348 316 -572 l7 -48 -173 -2 c-94 0 -180
-1 -189 0 -16 2 -18 -9 -18 -88 l0 -90 156 0 c88 0 164 4 175 10 15 9 19 7 20
-7 1 -13 4 -11 10 7 19 54 -3 -102 -22 -162 -88 -266 -303 -471 -576 -550 -67
-20 -101 -23 -243 -23 -163 1 -166 1 -267 36 -228 80 -392 224 -493 434 -68
141 -84 220 -77 403 4 123 9 161 32 232 49 152 103 243 211 352 208 211 498
299 779 238z m665 -871 c0 -32 -3 -59 -7 -59 -5 0 -6 25 -5 56 3 39 1 54 -7
50 -7 -4 -9 -1 -5 8 12 31 24 4 24 -55z m-40 -68 c0 -5 -9 -7 -20 -4 -11 3
-20 7 -20 9 0 2 9 4 20 4 11 0 20 -4 20 -9z"
              />
              <path
                d="M7890 5594 c-167 -43 -345 -182 -440 -343 -46 -77 -79 -164 -94 -248
l-5 -33 139 0 140 0 0 168 0 167 122 -3 c67 -2 141 -1 165 3 l43 6 0 150 c0
82 -3 149 -7 148 -5 0 -33 -7 -63 -15z"
              />
              <path
                d="M8202 5474 c3 -123 5 -139 21 -142 9 -2 17 2 17 8 0 6 -5 8 -12 4 -8
-5 -9 0 -3 17 4 13 8 42 10 64 1 22 3 48 4 58 1 22 61 25 61 2 0 -8 4 -15 9
-15 12 0 10 43 -2 51 -12 9 90 2 104 -7 8 -4 9 -3 5 4 -11 17 5 14 26 -5 10
-9 18 -11 18 -5 0 14 -64 48 -139 73 -59 21 -102 25 -63 7 25 -12 28 -23 10
-31 -7 -2 -17 -6 -23 -8 -5 -2 -12 9 -15 25 -3 16 -11 31 -18 34 -10 3 -12
-26 -10 -134z m15 64 c-2 -13 -4 -3 -4 22 0 25 2 35 4 23 2 -13 2 -33 0 -45z
m134 15 c-11 -5 -11 -7 0 -15 11 -7 9 -8 -4 -4 -10 3 -31 7 -45 7 -23 1 -22 3
8 9 43 9 60 10 41 3z"
              />
              <path
                d="M8240 5570 c0 -5 5 -10 10 -10 6 0 10 5 10 10 0 6 -4 10 -10 10 -5 0
-10 -4 -10 -10z"
              />
              <path
                d="M8502 5480 c7 -11 18 -20 25 -20 19 0 16 6 -12 24 -25 17 -25 16 -13
-4z"
              />
              <path
                d="M8340 5445 c0 -8 -5 -15 -12 -15 -6 0 -9 -2 -6 -5 3 -3 16 -1 29 4
13 5 18 10 11 10 -7 1 -10 6 -7 11 3 6 1 10 -4 10 -6 0 -11 -7 -11 -15z"
              />
              <path
                d="M8353 5415 c-18 -8 -33 -17 -33 -21 0 -3 8 -3 18 1 9 4 33 14 52 21
22 8 27 13 15 13 -11 0 -35 -6 -52 -14z"
              />
              <path
                d="M8575 5399 c3 -14 13 -42 24 -64 21 -43 15 -53 -18 -35 -21 11 -21 9
-21 -160 l0 -170 134 0 134 0 -13 58 c-28 118 -75 217 -142 299 -23 29 -39 40
-50 36 -11 -4 -14 -3 -9 6 5 7 2 10 -5 9 -7 -2 -13 2 -14 9 0 7 -5 17 -12 24
-10 10 -11 7 -8 -12z m65 -43 c0 -2 -8 -10 -17 -17 -16 -13 -17 -12 -4 4 13
16 21 21 21 13z"
              />
              <path
                d="M7897 5232 c-34 -37 -11 -74 40 -64 29 5 38 22 29 57 -8 30 -45 34
-69 7z"
              />
              <path
                d="M8328 5116 l-58 -63 0 -92 0 -92 -145 2 c-107 1 -147 4 -155 14 -7 9
-10 48 -8 104 l3 91 -80 -1 c-44 -1 -70 -4 -59 -6 27 -5 34 -29 34 -119 0 -78
-5 -84 -71 -84 -24 0 -25 -2 -20 -37 6 -35 9 -38 44 -41 30 -3 38 -8 43 -28 7
-28 5 -28 40 -9 23 12 69 15 231 14 192 0 204 1 233 21 l30 21 0 185 c0 101
-1 183 -2 183 -2 -1 -29 -29 -60 -63z"
              />
              <path
                d="M7259 4894 c-10 -28 -12 -114 -3 -138 5 -14 32 -16 190 -16 l184 0 0
90 0 91 -181 -1 -180 -2 -10 -24z m8 -116 c-3 -7 -5 -2 -5 12 0 14 2 19 5 13
2 -7 2 -19 0 -25z m46 15 c-7 -2 -19 -2 -25 0 -7 3 -2 5 12 5 14 0 19 -2 13
-5z m0 -20 c-7 -2 -19 -2 -25 0 -7 3 -2 5 12 5 14 0 19 -2 13 -5z"
              />
              <path
                d="M7360 4675 c0 -17 26 -90 51 -145 57 -122 191 -262 312 -326 66 -35
197 -84 224 -84 10 0 13 25 13 105 l0 105 -165 0 -165 0 0 181 0 180 -135 -2
c-99 -1 -135 -5 -135 -14z"
              />
              <path
                d="M8560 4526 c0 -90 -3 -171 -6 -180 -5 -14 -31 -16 -180 -16 l-174 0
0 -106 0 -106 38 7 c250 47 478 247 563 494 11 30 19 58 19 63 0 4 -58 8 -130
8 l-130 0 0 -164z"
              />
              <path
                d="M7810 4590 c-8 -5 -25 -10 -37 -10 -22 0 -23 -4 -23 -65 l0 -65 350
0 350 0 0 68 0 68 -35 3 c-59 4 -97 4 -180 -1 -44 -3 -90 -1 -101 3 -12 4 -70
3 -129 -2 -73 -6 -112 -6 -119 1 -13 13 -56 13 -76 0z"
              />
              <path
                d="M6318 5780 c-27 -27 -48 -51 -48 -54 0 -3 14 -13 30 -21 17 -9 36
-27 42 -40 11 -24 38 -35 38 -16 0 4 17 25 39 46 l38 38 -38 40 c-22 21 -39
43 -39 48 0 17 -15 7 -62 -41z"
              />
              <path
                d="M8880 5781 c-15 -29 -12 -56 8 -74 50 -46 114 13 82 74 -7 13 -21 19
-45 19 -24 0 -38 -6 -45 -19z"
              />
              <path
                d="M3702 5767 c-12 -13 -22 -28 -22 -33 0 -11 48 -60 52 -53 2 2 14 16
27 32 l24 27 -23 25 c-29 31 -31 31 -58 2z"
              />
              <path
                d="M3701 5544 c-24 -30 -15 -58 21 -70 16 -5 27 -1 40 16 23 28 23 31
-2 58 -27 28 -34 28 -59 -4z"
              />
              <path
                d="M2417 5522 c-22 -24 -21 -35 1 -55 25 -22 45 -21 67 3 15 17 16 24 7
45 -14 30 -51 33 -75 7z"
              />
              <path
                d="M1107 5505 c-9 -9 -17 -22 -17 -29 0 -23 36 -46 71 -46 28 0 41 -7
70 -42 l36 -42 116 75 c64 40 116 77 116 82 1 4 -61 7 -136 7 -76 0 -161 3
-189 6 -40 5 -54 3 -67 -11z"
              />
              <path
                d="M1870 5410 c-119 -15 -255 -76 -369 -165 -103 -80 -295 -288 -357
-387 l-25 -39 52 -77 c187 -277 386 -436 607 -488 49 -12 101 -15 197 -12 114
4 140 9 212 35 167 63 310 182 462 383 118 158 119 160 90 202 -77 110 -255
298 -371 390 l-38 30 -51 -49 -51 -49 30 -33 c107 -118 135 -309 67 -458 -36
-79 -134 -174 -210 -202 -208 -78 -438 6 -533 196 -85 167 -54 353 79 484 87
86 149 111 284 117 l110 4 53 48 54 48 -54 11 c-84 16 -167 20 -238 11z"
              />
              <path
                d="M6870 5272 l0 -88 35 4 35 4 0 84 0 84 -35 0 -35 0 0 -88z"
              />
              <path
                d="M2620 5300 c-11 -11 -20 -29 -20 -40 0 -25 34 -60 58 -60 20 0 45 24
55 52 8 22 -29 68 -54 68 -10 0 -28 -9 -39 -20z"
              />
              <path
                d="M1868 5161 c-134 -44 -216 -168 -206 -312 6 -81 36 -138 103 -197
184 -162 473 -29 477 219 2 108 -57 212 -149 266 -37 21 -61 27 -122 29 -42 2
-88 0 -103 -5z m143 -187 c35 -18 63 -77 55 -118 -4 -18 -20 -46 -37 -62 -25
-24 -39 -29 -80 -29 -44 0 -54 4 -80 33 -53 59 -35 151 36 183 40 19 59 17
106 -7z"
              />
              <path
                d="M2900 5120 c-26 -26 -33 -58 -28 -137 4 -57 8 -69 32 -89 24 -22 37
-24 122 -24 92 0 97 1 125 29 27 28 29 34 29 109 0 65 -4 84 -21 106 -20 25
-24 26 -130 26 -95 0 -111 -2 -129 -20z m162 -87 c10 -9 18 -23 18 -31 0 -21
-29 -52 -48 -52 -23 0 -52 30 -52 55 0 43 47 60 82 28z"
              />
              <path
                d="M3406 5061 c-38 -38 -67 -73 -65 -79 5 -13 88 -102 95 -102 3 0 37
32 75 70 l70 71 -47 54 c-25 30 -49 55 -53 55 -4 0 -37 -31 -75 -69z"
              />
              <path
                d="M6835 4823 c-11 -21 -37 -49 -58 -63 l-38 -24 44 -41 c25 -22 53 -52
62 -67 22 -36 32 -35 49 6 8 18 31 46 52 62 22 15 41 30 44 32 2 2 -15 19 -38
39 -23 19 -49 48 -58 64 -20 39 -35 36 -59 -8z"
              />
              <path
                d="M3225 4731 c-22 -4 -31 -12 -33 -31 -4 -34 -62 -72 -99 -64 -23 4
-34 -1 -60 -28 -34 -36 -51 -82 -34 -92 6 -4 11 -21 11 -38 0 -22 -6 -31 -21
-35 -17 -5 -19 -11 -14 -37 12 -59 17 -66 51 -81 28 -11 34 -19 34 -44 0 -49
88 -97 104 -56 9 25 37 17 72 -20 36 -39 57 -42 110 -20 32 13 35 18 30 41 -6
22 0 32 34 64 23 21 48 36 54 34 17 -6 76 61 76 85 0 10 -6 24 -14 30 -26 22
-36 67 -20 89 24 34 -17 112 -58 112 -10 0 -29 11 -42 25 -13 14 -29 25 -36
25 -6 0 -20 10 -29 21 -18 23 -65 31 -116 20z m84 -207 c25 -21 31 -33 31 -65
0 -80 -77 -115 -139 -63 -42 35 -43 84 -2 125 36 36 70 37 110 3z"
              />
              <path
                d="M6680 4505 c0 -19 -56 -82 -81 -90 -28 -9 -23 -28 11 -49 17 -9 42
-35 55 -57 14 -21 29 -39 33 -39 4 0 16 16 27 36 11 20 37 47 57 60 21 14 38
28 38 32 0 4 -15 16 -34 26 -18 10 -43 35 -55 57 -22 39 -51 53 -51 24z"
              />
              <path
                d="M2767 4484 c-12 -12 -8 -41 8 -54 20 -17 47 5 43 34 -3 21 -37 34
-51 20z"
              />
              <path
                d="M5907 4291 c-7 -165 -57 -369 -165 -681 -17 -47 -38 -104 -48 -127
l-19 -43 -84 123 c-47 67 -132 188 -189 270 l-105 147 -222 0 -221 0 -80 -107
c-44 -60 -129 -181 -189 -271 l-109 -162 -38 97 c-47 120 -120 341 -147 445
-29 111 -54 294 -49 361 5 67 6 67 -106 37 -342 -91 -802 -388 -971 -625 -106
-148 -135 -253 -135 -497 l0 -168 785 -2 c432 -2 785 1 785 5 0 4 -19 52 -41
105 -31 73 -39 102 -33 119 11 26 257 402 264 402 3 1 31 -43 62 -97 l57 -97
-20 -130 c-12 -72 -27 -169 -33 -217 l-13 -88 229 0 c176 0 228 3 228 13 0 6
-9 64 -19 127 -10 63 -24 156 -31 207 l-13 92 58 93 c68 108 67 106 72 92 2
-5 62 -98 133 -205 71 -107 130 -199 130 -205 0 -6 -18 -55 -40 -109 -22 -54
-40 -100 -40 -102 0 -1 356 -3 790 -3 l790 0 0 155 c0 99 -6 184 -15 233 -20
102 -89 238 -167 331 -200 238 -604 483 -947 575 l-88 24 -6 -117z m432 -285
c9 -11 10 -20 1 -36 -13 -24 -38 -23 -53 1 -23 37 25 68 52 35z m-2381 -8 c17
-17 15 -48 -5 -70 -20 -22 -31 -23 -55 -1 -34 31 -17 83 27 83 12 0 26 -5 33
-12z m2266 6 c22 -8 20 -27 -4 -49 -16 -15 -22 -15 -35 -5 -15 13 -20 42 -8
53 8 9 27 9 47 1z m380 -486 c13 -19 14 -25 2 -43 -26 -39 -76 -26 -76 19 0
46 48 62 74 24z m-352 -15 c10 -9 18 -23 18 -31 0 -18 -28 -52 -43 -52 -19 0
-47 33 -47 55 0 43 39 58 72 28z m-2230 -10 c25 -22 23 -50 -6 -68 -46 -31
-97 25 -60 66 21 23 42 24 66 2z m-337 -40 c76 -83 -35 -194 -117 -116 -34 33
-37 79 -7 117 29 37 88 37 124 -1z m2415 -73 c14 -27 4 -57 -20 -65 -39 -12
-68 30 -44 63 19 28 50 28 64 2z"
              />
              <path
                d="M1170 4380 c-9 -17 -7 -28 11 -61 23 -39 23 -40 5 -93 -21 -63 -17
-86 17 -86 23 0 77 43 77 61 0 4 15 13 34 20 56 20 57 80 2 99 -17 6 -40 25
-51 43 -26 41 -77 50 -95 17z"
              />
              <path
                d="M6945 4268 c-41 -23 -47 -66 -15 -98 27 -27 62 -25 88 3 34 36 28 73
-15 96 -26 14 -33 13 -58 -1z"
              />
              <path
                d="M2682 4243 c-14 -3 -28 -17 -37 -40 -14 -34 -17 -35 -52 -30 -49 8
-105 -31 -103 -72 3 -45 1 -50 -30 -66 -40 -21 -53 -48 -45 -96 5 -29 14 -42
33 -52 24 -11 27 -18 27 -61 0 -43 4 -51 34 -77 27 -22 38 -26 53 -18 26 14
54 3 78 -32 19 -25 28 -29 70 -29 44 0 50 3 56 24 3 14 15 33 25 42 17 15 25
16 50 7 26 -10 33 -9 57 12 22 19 27 33 29 72 1 26 2 51 2 56 1 4 7 7 15 7 28
0 46 30 46 76 0 45 -6 55 -65 103 -10 8 -15 23 -12 37 3 18 -4 32 -30 55 -20
17 -41 28 -49 25 -8 -3 -20 -8 -27 -11 -8 -4 -21 8 -32 29 -16 29 -45 49 -65
45 -3 -1 -15 -4 -28 -6z m79 -222 c21 -22 29 -39 29 -66 0 -43 -45 -95 -82
-95 -25 0 -64 23 -85 50 -39 48 12 140 77 140 22 0 41 -9 61 -29z"
              />
              <path
                d="M1976 4081 c-23 -42 -33 -52 -75 -66 -27 -9 -52 -22 -54 -30 -7 -17
19 -40 63 -54 27 -8 42 -22 61 -59 14 -26 32 -47 39 -47 8 0 26 22 40 49 22
43 31 51 71 62 26 8 52 21 60 30 11 14 10 18 -6 30 -10 8 -34 17 -52 20 -34 6
-54 26 -85 83 -9 17 -21 31 -26 31 -5 0 -21 -22 -36 -49z"
              />
              <path
                d="M8942 4068 c-32 -32 18 -87 53 -58 28 23 12 70 -25 70 -9 0 -21 -5
-28 -12z"
              />
              <path
                d="M7102 4027 c-18 -18 -32 -36 -32 -40 0 -11 63 -66 76 -67 5 0 25 16
44 35 l34 35 -34 35 c-19 19 -39 35 -45 35 -6 0 -25 -15 -43 -33z"
              />
              <path
                d="M1354 4001 c-147 -26 -202 -210 -93 -313 68 -65 215 -76 305 -23 32
19 50 40 70 81 26 53 27 60 16 110 -13 64 -43 107 -91 131 -39 19 -141 26
-207 14z m36 -116 c17 -9 30 -21 30 -27 0 -7 13 0 28 15 36 34 66 34 97 1 33
-36 31 -69 -4 -105 -36 -35 -39 -35 -84 -5 -35 24 -36 24 -53 5 -21 -23 -71
-25 -96 -2 -27 24 -24 78 7 108 28 29 36 30 75 10z"
              />
              <path
                d="M8812 3947 c-5 -7 -15 -27 -22 -45 -12 -31 -53 -62 -83 -62 -8 0 -22
-9 -31 -19 -17 -18 -17 -20 3 -40 12 -12 32 -21 45 -21 31 0 46 -16 70 -69 11
-22 25 -41 32 -41 8 0 25 22 39 49 22 44 30 51 72 63 40 11 49 18 51 40 3 23
-2 28 -48 43 -44 15 -54 23 -72 61 -23 47 -41 60 -56 41z"
              />
              <path
                d="M7378 3833 c-20 -41 -29 -49 -73 -63 -37 -12 -51 -22 -53 -38 -3 -23
15 -35 70 -46 20 -5 34 -19 49 -49 39 -76 57 -82 80 -24 18 47 38 66 75 73 18
3 40 14 50 25 22 24 7 43 -44 60 -48 15 -60 25 -83 71 -11 21 -26 38 -34 38
-8 0 -25 -21 -37 -47z"
              />
              <path
                d="M1705 3826 c-21 -15 -14 -60 11 -70 27 -10 56 12 52 41 -4 32 -38 47
-63 29z"
              />
              <path
                d="M8060 3683 c-84 -10 -212 -48 -295 -88 -99 -48 -244 -157 -276 -208
-44 -72 20 -170 100 -152 14 3 60 38 101 78 134 129 282 187 475 188 214 0
371 -65 517 -214 67 -68 95 -89 121 -94 71 -11 126 48 113 121 -5 25 -23 50
-67 91 -140 128 -300 220 -450 254 -83 19 -271 33 -339 24z"
              />
              <path
                d="M1839 3620 c-47 -25 -87 -72 -94 -113 -3 -18 -5 -174 -3 -348 l3
-316 27 -40 c51 -77 57 -78 453 -78 193 0 367 4 388 8 43 9 91 48 131 106 l28
39 -21 48 c-12 26 -52 101 -90 168 -37 67 -106 189 -151 271 -159 288 -140
275 -427 275 -185 -1 -212 -3 -244 -20z m122 -128 c47 -39 16 -122 -47 -122
-33 0 -64 34 -64 70 0 60 64 90 111 52z m313 -75 c44 -75 96 -173 96 -179 0
-14 -16 -9 -52 16 l-35 24 -70 -117 -70 -116 36 -7 c20 -4 95 -5 167 -1 l131
6 42 -62 42 -61 -316 0 c-173 0 -315 3 -315 8 0 14 311 522 320 522 3 0 13
-15 24 -33z m-374 -156 c0 -14 -64 -104 -77 -109 -26 -8 -46 101 -20 111 21 9
97 7 97 -2z"
              />
              <path
                d="M2796 3480 c-6 -44 -10 -50 -31 -51 -14 -1 -31 -2 -37 -3 -7 0 -14
-11 -16 -23 -3 -19 1 -23 25 -23 51 0 58 -12 61 -110 4 -87 5 -90 28 -90 24 0
24 1 24 93 l0 93 43 10 c26 6 42 14 42 24 0 10 -16 18 -42 24 l-43 10 0 48 c0
44 -2 48 -24 48 -21 0 -24 -6 -30 -50z"
              />
              <path
                d="M1366 3460 c-37 -12 -66 -38 -82 -77 -17 -40 -19 -288 -3 -330 37
-99 156 -121 224 -42 25 30 25 33 25 203 0 163 -1 175 -22 201 -21 27 -75 56
-100 54 -7 0 -26 -5 -42 -9z m62 -86 c21 -14 22 -22 22 -158 0 -128 -2 -145
-19 -160 -22 -20 -56 -15 -65 9 -3 8 -6 76 -7 150 -1 117 2 139 17 156 21 23
24 23 52 3z"
              />
              <path
                d="M8085 3354 c-112 -18 -239 -77 -324 -151 -83 -72 -102 -137 -55 -192
55 -66 147 -45 193 43 31 59 83 89 194 112 81 17 141 13 232 -17 72 -23 175
-99 175 -130 0 -39 31 -87 67 -104 45 -22 91 -13 126 23 60 63 45 122 -58 224
-130 130 -252 185 -424 192 -53 2 -109 2 -126 0z"
              />
              <path
                d="M7340 3151 c-13 -25 -4 -48 21 -56 38 -12 65 35 37 63 -18 18 -46 14
-58 -7z"
              />
              <path
                d="M8080 2983 c-35 -19 -59 -40 -71 -63 -21 -38 -25 -120 -8 -137 7 -7
2 -20 -19 -43 -59 -64 -85 -127 -90 -217 -10 -180 91 -312 266 -348 64 -14 80
-14 137 0 85 19 131 44 183 95 95 95 129 248 82 372 -24 65 -93 148 -144 172
-27 13 -35 23 -40 55 -19 120 -172 178 -296 114z m206 -397 c38 -38 42 -64 17
-107 -38 -64 -126 -67 -164 -5 -27 45 -24 82 10 117 42 42 92 40 137 -5z"
              />
              <path
                d="M6593 2963 c-3 -10 -15 -40 -26 -68 -10 -27 -39 -105 -63 -173 l-44
-123 0 -602 c0 -372 4 -616 10 -638 51 -185 291 -202 364 -27 14 32 16 119 16
652 l0 614 -69 189 -69 188 -56 3 c-47 2 -57 0 -63 -15z m80 -165 c9 -24 29
-79 46 -122 17 -44 28 -82 25 -85 -6 -6 -174 -5 -180 2 -3 2 14 53 36 113 22
60 43 115 45 122 7 20 12 14 28 -30z m-18 -292 c28 0 61 3 75 7 l25 8 0 -563
c0 -519 -1 -566 -18 -595 -31 -58 -95 -71 -144 -29 l-28 24 -3 582 -2 582 22
-7 c13 -5 46 -9 73 -9z"
              />
              <path
                d="M6653 2433 c-7 -2 -13 -13 -13 -24 0 -15 7 -19 35 -19 31 0 35 3 35
25 0 19 -5 25 -22 24 -13 0 -29 -3 -35 -6z"
              />
              <path
                d="M6635 2320 c-11 -18 5 -30 41 -30 27 0 34 4 34 20 0 16 -7 20 -34 20
-19 0 -38 -4 -41 -10z"
              />
              <path
                d="M6635 2220 c-11 -18 5 -30 41 -30 27 0 34 4 34 20 0 16 -7 20 -34 20
-19 0 -38 -4 -41 -10z"
              />
              <path
                d="M6640 2110 c0 -16 7 -20 35 -20 28 0 35 4 35 20 0 16 -7 20 -35 20
-28 0 -35 -4 -35 -20z"
              />
              <path
                d="M6637 2016 c-8 -20 2 -26 40 -26 26 0 33 4 33 20 0 16 -7 20 -34 20
-20 0 -36 -6 -39 -14z"
              />
              <path
                d="M6635 1920 c-11 -18 5 -30 41 -30 27 0 34 4 34 20 0 16 -7 20 -34 20
-19 0 -38 -4 -41 -10z"
              />
              <path
                d="M6641 1821 c-22 -14 -3 -31 35 -31 27 0 34 4 34 20 0 15 -7 20 -27
20 -16 0 -34 -4 -42 -9z"
              />
              <path
                d="M6651 1721 c-23 -15 -5 -41 29 -41 25 0 30 4 30 25 0 19 -5 25 -22
25 -13 0 -29 -4 -37 -9z"
              />
              <path
                d="M6635 1610 c-8 -13 38 -30 64 -23 12 3 21 12 21 19 0 17 -75 20 -85
4z"
              />
              <path
                d="M6639 1487 c-32 -17 -37 -60 -9 -80 27 -19 59 -11 72 19 21 45 -19
83 -63 61z"
              />
              <path
                d="M7151 2915 c-24 -7 -56 -26 -72 -41 -60 -57 -60 -59 -57 -620 l3
-510 27 -41 c46 -69 74 -77 306 -81 112 -2 228 -1 257 3 69 8 114 38 143 95
22 44 22 45 22 547 0 542 0 545 -53 601 -50 54 -65 57 -307 59 -171 2 -236 -1
-269 -12z m329 -85 c0 -18 -7 -20 -79 -20 -76 0 -100 8 -86 30 3 6 42 10 86
10 72 0 79 -2 79 -20z m180 -490 l0 -380 -239 0 c-132 0 -246 -3 -255 -6 -14
-6 -16 32 -16 380 l0 386 255 0 255 0 0 -380z m-218 -507 c25 -22 24 -79 -1
-93 -46 -24 -101 3 -101 50 0 50 64 78 102 43z"
              />
              <path
                d="M7284 2397 c-3 -10 -3 -34 1 -53 5 -30 3 -34 -15 -34 -19 0 -20 -6
-20 -110 l0 -110 150 0 150 0 0 93 c0 52 -2 96 -5 99 -3 2 -18 3 -35 0 -29 -4
-30 -6 -30 -53 l0 -49 -74 0 c-82 0 -86 3 -86 67 0 26 7 40 25 55 14 11 25 26
25 34 0 16 43 29 60 19 6 -4 15 -18 21 -32 7 -20 15 -24 41 -21 33 3 33 4 36
61 l3 58 -121 -3 c-106 -3 -121 -5 -126 -21z"
              />
              <path
                d="M3431 2884 c-12 -15 -21 -39 -21 -54 0 -24 -5 -28 -39 -34 -65 -10
-71 -27 -71 -209 l0 -159 35 -35 c19 -19 35 -41 35 -48 0 -7 -11 -62 -26 -121
-24 -106 -25 -115 -22 -429 l3 -322 30 -48 c37 -60 80 -87 140 -87 68 0 120
34 152 99 l26 54 -2 327 c-2 305 -4 335 -27 440 -13 63 -24 115 -24 117 0 1
13 5 28 8 44 9 52 40 52 210 0 171 -6 192 -64 203 -30 5 -34 10 -40 44 -8 49
-36 70 -97 70 -39 0 -51 -5 -68 -26z m109 -289 l0 -175 -40 0 -40 0 0 175 0
175 40 0 40 0 0 -175z m-12 -380 c18 -39 16 -674 -2 -697 -16 -22 -25 -22 -48
-1 -17 15 -18 39 -18 350 0 344 3 373 41 373 9 0 21 -11 27 -25z"
              />
              <path
                d="M4070 2873 c-67 -17 -120 -52 -156 -104 -53 -77 -54 -92 -54 -759 0
-338 3 -632 6 -653 11 -61 63 -138 118 -172 l49 -30 358 -3 358 -3 -6 -32 c-3
-18 -13 -61 -22 -96 -16 -63 -16 -64 -54 -67 -47 -4 -56 -9 -68 -41 -7 -19 -6
-32 6 -49 l15 -24 450 0 449 0 15 22 c22 31 20 45 -9 73 -16 17 -35 25 -58 25
l-33 0 -12 73 c-7 39 -15 82 -18 95 l-6 22 340 0 c320 0 345 1 396 21 38 14
67 34 91 62 67 77 66 70 63 798 l-3 654 -30 54 c-39 71 -92 115 -165 135 -54
15 -149 17 -1012 15 -784 -1 -963 -4 -1008 -16z m1986 -172 c17 -10 39 -35 48
-56 17 -34 18 -81 14 -643 -3 -577 -4 -609 -22 -639 -11 -17 -30 -36 -43 -42
-17 -8 -315 -11 -983 -11 l-959 0 -35 34 -36 33 0 154 c0 85 -3 361 -6 614 -5
433 -5 462 13 495 10 19 33 45 52 57 l34 23 946 0 c908 0 947 -1 977 -19z"
              />
              <path
                d="M4955 2518 c-2 -7 -7 -31 -12 -53 -8 -35 -14 -42 -53 -56 -44 -16
-45 -16 -77 8 l-33 25 -32 -24 c-68 -52 -138 -120 -138 -135 0 -8 10 -29 22
-45 l21 -30 -28 -54 c-24 -46 -33 -54 -64 -60 -20 -3 -42 -7 -48 -9 -10 -3
-13 -36 -13 -119 0 -123 1 -126 58 -126 23 0 31 -8 55 -61 l28 -60 -23 -40
-22 -40 79 -79 c44 -44 85 -80 93 -80 7 0 31 10 52 22 l39 23 38 -22 c32 -18
40 -29 49 -70 l10 -48 115 0 114 0 3 30 c6 64 11 72 57 89 44 17 46 17 79 -3
18 -12 38 -21 44 -21 5 0 47 37 91 81 77 76 81 83 68 103 -41 63 -40 58 -12
118 25 53 29 56 71 63 l44 6 0 120 0 119 -38 0 c-42 0 -67 20 -97 79 -16 33
-16 35 5 73 12 21 19 46 16 56 -7 20 -142 142 -158 142 -5 0 -23 -11 -39 -24
-28 -24 -30 -24 -74 -10 -45 16 -49 21 -61 87 l-6 37 -109 0 c-79 0 -111 -4
-114 -12z m219 -228 c86 -27 172 -104 217 -195 27 -55 31 -74 31 -140 -1 -63
-6 -87 -31 -140 -53 -115 -147 -188 -261 -203 -124 -17 -223 13 -310 94 -144
134 -150 348 -15 487 105 108 227 140 369 97z"
              />
              <path
                d="M5007 2140 c-105 -32 -164 -156 -121 -258 55 -133 204 -162 317 -62
81 71 80 199 -2 273 -56 51 -126 67 -194 47z"
              />
              <path
                d="M4388 2422 c-26 -9 -50 -20 -53 -24 -9 -9 31 -74 48 -81 7 -3 27 12
44 32 23 28 30 44 26 64 -6 31 -3 31 -65 9z"
              />
              <path
                d="M4210 2123 l0 -53 49 0 49 0 4 49 3 49 -53 4 -52 3 0 -52z"
              />
              <path
                d="M5788 1697 l-16 -33 34 -10 c26 -9 38 -8 54 3 20 14 20 15 -7 36 -15
12 -29 25 -31 29 -7 16 -19 7 -34 -25z"
              />
              <path
                d="M4242 1669 l-42 -51 35 -39 c19 -22 35 -44 35 -49 0 -6 7 -10 15 -10
8 0 15 4 15 10 0 5 16 28 36 50 l36 39 -43 51 c-23 27 -43 50 -43 50 -1 0 -20
-23 -44 -51z"
              />
              <path
                d="M1490 2810 c-7 -17 -31 -47 -54 -66 l-41 -36 31 -26 c17 -15 40 -42
53 -59 12 -18 26 -33 30 -33 5 0 20 18 35 40 14 22 39 46 56 55 16 9 30 19 30
23 0 4 -16 17 -35 29 -19 13 -44 41 -55 63 -11 22 -24 40 -29 40 -5 0 -14 -14
-21 -30z"
              />
              <path
                d="M3078 2810 c-19 -15 -21 -22 -12 -37 16 -27 60 -29 74 -3 12 23 8 35
-20 50 -14 7 -24 5 -42 -10z"
              />
              <path
                d="M3076 2654 c-21 -20 -20 -50 0 -58 30 -11 53 -6 64 15 9 16 8 25 -6
40 -21 23 -37 24 -58 3z"
              />
              <path
                d="M1884 2580 c-26 -10 -72 -65 -80 -94 -3 -12 -4 -143 -2 -292 3 -235
5 -273 21 -301 38 -70 19 -68 538 -68 457 0 468 0 496 21 60 44 63 62 63 362
0 304 -4 326 -64 363 -29 18 -58 19 -491 18 -253 0 -469 -4 -481 -9z m264
-132 c18 -18 14 -53 -8 -73 -39 -35 -96 17 -70 65 12 23 58 28 78 8z m515 -9
c19 -27 11 -54 -20 -68 -21 -10 -29 -9 -44 5 -22 19 -25 54 -7 72 19 19 55 14
71 -9z m-218 -111 c119 -62 127 -245 13 -304 -54 -28 -127 -29 -178 -2 -112
57 -131 192 -40 279 60 57 129 66 205 27z"
              />
              <path
                d="M3076 2494 c-29 -29 -12 -64 31 -64 19 0 43 25 43 44 0 10 -32 36
-45 36 -7 0 -21 -7 -29 -16z"
              />
              <path
                d="M1578 2339 c-22 -12 -24 -62 -4 -79 23 -18 59 -8 75 22 14 24 14 28
-3 47 -21 23 -41 26 -68 10z"
              />
              <path
                d="M3076 2334 c-9 -8 -16 -19 -16 -24 0 -13 30 -40 45 -40 8 0 21 10 29
22 30 42 -21 79 -58 42z"
              />
              <path
                d="M3080 2180 c-24 -24 -25 -34 -4 -54 21 -21 37 -20 58 3 14 15 15 24
7 39 -16 30 -39 34 -61 12z"
              />
              <path
                d="M7958 2007 l-48 -51 33 -30 c18 -17 39 -42 48 -56 l16 -24 25 40 c14
22 36 47 49 55 l23 16 -49 50 -50 51 -47 -51z"
              />
              <path
                d="M3076 2015 c-23 -24 -20 -44 9 -57 22 -10 29 -9 48 10 17 18 19 26
11 40 -15 23 -48 27 -68 7z"
              />
              <path
                d="M3076 1854 c-9 -8 -16 -19 -16 -24 0 -13 30 -40 45 -40 8 0 21 10 29
22 30 42 -21 79 -58 42z"
              />
              <path
                d="M2790 1680 c-25 -25 -26 -52 -2 -73 27 -24 59 -21 78 8 20 30 11 58
-22 73 -32 15 -31 15 -54 -8z"
              />
              <path
                d="M2556 1654 c-7 -19 10 -44 30 -44 16 0 33 30 27 48 -7 18 -50 15 -57
-4z"
              />
              <path
                d="M3069 1589 c-10 -20 -9 -25 11 -41 28 -23 33 -23 56 3 23 25 9 53
-29 57 -18 2 -29 -3 -38 -19z"
              />
              <path
                d="M7020 1509 c-26 -47 25 -100 69 -72 20 13 26 60 10 79 -18 22 -66 18
-79 -7z"
              />
              <path
                d="M3081 1451 c-23 -23 -19 -46 10 -62 14 -7 23 -5 39 11 24 24 23 38
-7 57 -19 13 -24 12 -42 -6z"
              />
              <path
                d="M5659 1039 c-35 -35 -18 -79 31 -79 34 0 57 38 41 68 -15 29 -49 34
-72 11z"
              />
              <path
                d="M4412 1038 c-20 -20 -14 -66 9 -79 44 -23 93 26 69 71 -12 23 -58 28
-78 8z"
              />
            </g>
          </svg>